# xmcd CD database file
#
# Track frame offsets:
#	150
#	15414
#	30672
#	52843
#	74376
#	91483
#	111844
#	127536
#	142092
#	156899
#	172352
#
# Disc length: 2582 seconds
#
# Revision: 7
# Processed by: cddbd v1.5.2PL0 Copyright (c) Steve Scherf et al.
# Submitted via: jetAudio 5
#
DISCID=8e0a140b
DTITLE=Mandisa - True Beauty
DYEAR=1900
DGENRE=
TTITLE0=Only The World
TTITLE1=True Beauty
TTITLE2=God Speaking
TTITLE3=Voice Of A Savior
TTITLE4=Love Somebody
TTITLE5=Unrestrained
TTITLE6=Shackles (Praise You)
TTITLE7=(Never Gonna) Steal My Joy
TTITLE8=Oh, My Lord
TTITLE9=Only You
TTITLE10=He Will Come
EXTD=
EXTT0=
EXTT1=
EXTT2=
EXTT3=
EXTT4=
EXTT5=
EXTT6=
EXTT7=
EXTT8=
EXTT9=
EXTT10=
PLAYORDER=
